# xmcd CD database file
#
# Track frame offsets:
#	150
#	12295
#	36117
#	66737
#	92180
#	118217
#	143757
#	165455
#	192210
#	219347
#	243790
#	273075
#
# Disc length: 3832 seconds
#
# Revision: 0
# Processed by: cddbd v1.5.1PL0 Copyright (c) Steve Scherf et al.
# Submitted via: CDex 1.51
#
DISCID=a60ef60c
DTITLE=シカラムータ - ゴースト・サーカス
DYEAR=2004
DGENRE=Tribal
TTITLE0=ゴーストヂンタ・序
TTITLE1=PILLOW WALK
TTITLE2=不屈の民
TTITLE3=STARA PLANINA
TTITLE4=眠り男の遁走
TTITLE5=カリガリ
TTITLE6=HERAKLION
TTITLE7=鳥の歌
TTITLE8=光線とフイゴ
TTITLE9=平和に生きる権利
TTITLE10=ゴーストレクイエム
TTITLE11=(Bonus Track)
EXTD=YEAR: 2004
EXTT0=
EXTT1=
EXTT2=
EXTT3=
EXTT4=
EXTT5=
EXTT6=
EXTT7=
EXTT8=
EXTT9=
EXTT10=
EXTT11=
PLAYORDER=
